<svg id="svg" version="1.1" xmlns="http://www.w3.org/2000/svg" xmlns:xlink="http://www.w3.org/1999/xlink" width="53.87" height="43.61" viewBox="0, 0, 400,237.33333333333334">
	<g id="svgg">
		<path id="path0" d="M347.181 12.033 C 346.789 12.097,346.362 12.237,346.231 12.344 C 346.101 12.451,345.567 12.618,345.045 12.714 C 344.522 12.810,343.723 13.087,343.268 13.329 C 342.813 13.571,342.353 13.769,342.247 13.769 C 342.141 13.769,341.492 14.116,340.806 14.540 C 340.119 14.964,339.382 15.418,339.168 15.549 C 338.011 16.254,336.623 17.360,335.370 18.575 C 334.595 19.326,333.864 19.941,333.746 19.941 C 333.628 19.941,333.531 20.037,333.531 20.155 C 333.531 20.272,332.917 21.003,332.166 21.778 C 330.092 23.919,329.578 24.530,329.414 25.046 C 329.331 25.306,329.007 25.796,328.693 26.134 C 328.380 26.472,327.960 27.059,327.761 27.439 C 327.562 27.820,327.203 28.344,326.964 28.605 C 326.724 28.866,326.368 29.401,326.172 29.792 C 325.977 30.184,325.683 30.590,325.520 30.694 C 325.356 30.799,325.223 30.983,325.223 31.103 C 325.223 31.223,324.764 32.099,324.205 33.050 C 323.645 34.000,323.035 35.151,322.850 35.608 C 322.664 36.065,322.375 36.580,322.206 36.753 C 322.037 36.925,321.899 37.259,321.899 37.495 C 321.899 37.731,321.742 38.055,321.549 38.214 C 321.357 38.374,321.132 38.864,321.050 39.303 C 320.967 39.742,320.751 40.225,320.569 40.377 C 320.386 40.528,320.237 40.858,320.237 41.111 C 320.237 41.364,320.131 41.505,320.000 41.424 C 319.869 41.344,319.763 41.447,319.763 41.655 C 319.763 42.003,319.022 43.941,318.205 45.733 C 318.017 46.145,317.864 46.643,317.864 46.841 C 317.864 47.039,317.763 47.236,317.640 47.280 C 317.517 47.323,317.367 47.626,317.307 47.953 C 317.068 49.247,316.819 49.980,316.518 50.282 C 316.149 50.650,316.091 51.135,316.441 50.919 C 316.579 50.833,316.563 51.028,316.403 51.380 C 316.250 51.714,316.029 51.988,315.910 51.988 C 315.792 51.988,315.767 52.215,315.855 52.493 C 315.969 52.851,315.933 52.946,315.732 52.822 C 315.533 52.699,315.465 52.851,315.503 53.326 C 315.533 53.700,315.480 54.188,315.384 54.410 C 315.288 54.632,315.285 54.935,315.376 55.082 C 315.467 55.229,315.316 55.507,315.041 55.700 C 314.765 55.893,314.542 56.232,314.544 56.453 C 314.547 56.799,314.579 56.805,314.777 56.499 C 314.939 56.249,315.009 56.234,315.011 56.447 C 315.013 56.614,314.782 56.837,314.498 56.942 C 313.544 57.295,314.653 57.331,324.477 57.265 C 333.981 57.201,334.057 57.196,333.932 56.717 C 333.829 56.321,333.867 56.284,334.143 56.514 C 334.418 56.742,334.484 56.690,334.498 56.231 C 334.528 55.275,334.715 54.534,335.020 54.157 C 335.258 53.862,335.250 53.833,334.978 53.997 C 334.730 54.147,334.698 54.113,334.853 53.865 C 334.968 53.681,335.071 53.424,335.081 53.294 C 335.092 53.163,335.163 52.896,335.239 52.700 C 335.352 52.408,335.917 50.523,336.022 50.089 C 336.038 50.024,336.137 49.596,336.243 49.139 C 336.348 48.682,336.533 48.186,336.653 48.037 C 336.773 47.887,336.850 47.674,336.824 47.562 C 336.761 47.291,337.113 45.995,337.331 45.697 C 337.427 45.567,337.582 45.033,337.676 44.512 C 337.770 43.991,337.916 43.457,338.000 43.325 C 338.084 43.194,338.164 43.033,338.176 42.967 C 338.189 42.902,338.325 42.548,338.477 42.180 C 338.629 41.813,338.754 41.305,338.754 41.053 C 338.754 40.800,338.861 40.593,338.991 40.593 C 339.122 40.593,339.232 40.460,339.237 40.297 C 339.241 40.134,339.451 39.573,339.703 39.050 C 339.956 38.528,340.166 38.010,340.170 37.899 C 340.184 37.541,342.122 33.612,342.646 32.878 C 342.926 32.487,343.303 31.876,343.483 31.521 C 343.663 31.167,343.893 30.928,343.995 30.991 C 344.096 31.053,344.248 30.890,344.331 30.627 C 344.415 30.364,344.566 30.148,344.668 30.148 C 344.770 30.148,345.100 29.935,345.401 29.674 C 346.362 28.840,348.057 29.112,348.496 30.171 C 348.653 30.550,348.876 30.861,348.990 30.861 C 349.105 30.861,349.199 30.994,349.200 31.157 C 349.201 31.320,349.357 31.751,349.546 32.115 C 349.777 32.556,349.796 32.718,349.604 32.603 C 349.447 32.509,349.478 32.628,349.674 32.869 C 350.112 33.409,350.212 44.522,349.781 44.816 C 349.644 44.909,349.517 45.252,349.498 45.579 C 349.420 46.960,349.153 48.190,348.933 48.190 C 348.803 48.190,348.765 48.301,348.849 48.438 C 348.933 48.574,348.896 48.814,348.767 48.972 C 348.637 49.129,348.456 49.766,348.363 50.386 C 348.271 51.006,348.088 51.513,347.957 51.513 C 347.826 51.513,347.775 51.727,347.843 51.988 C 347.912 52.249,347.859 52.463,347.727 52.463 C 347.595 52.463,347.544 52.613,347.614 52.796 C 347.684 52.979,347.675 53.195,347.594 53.277 C 347.512 53.358,347.410 53.662,347.366 53.953 C 347.322 54.243,347.188 54.514,347.069 54.555 C 346.949 54.596,346.917 54.801,346.997 55.010 C 347.094 55.262,347.050 55.332,346.865 55.217 C 346.545 55.020,346.592 55.694,346.937 56.261 C 347.124 56.568,347.098 56.573,346.752 56.291 C 346.386 55.995,346.247 56.081,346.322 56.558 C 346.337 56.656,346.237 56.736,346.099 56.736 C 345.960 56.736,345.909 56.835,345.984 56.957 C 346.059 57.078,346.012 57.245,345.879 57.327 C 345.569 57.519,345.566 57.923,345.875 57.923 C 346.006 57.923,346.086 57.789,346.053 57.626 C 346.007 57.394,347.781 57.315,354.153 57.262 C 361.380 57.202,362.296 57.236,362.174 57.556 C 362.022 57.951,362.497 57.960,362.786 57.567 C 363.072 57.177,362.999 56.451,362.693 56.640 C 362.527 56.742,362.484 56.705,362.582 56.546 C 362.672 56.401,362.902 56.342,363.094 56.416 C 363.325 56.504,363.442 56.397,363.442 56.097 C 363.442 55.848,363.576 55.500,363.739 55.324 C 363.970 55.075,363.971 55.041,363.742 55.170 C 363.544 55.282,363.494 55.215,363.589 54.968 C 363.667 54.765,363.833 54.599,363.959 54.599 C 364.085 54.599,364.155 54.343,364.114 54.029 C 364.071 53.707,364.245 53.224,364.512 52.920 C 364.787 52.607,364.836 52.467,364.629 52.586 C 364.328 52.760,364.321 52.733,364.582 52.409 C 364.853 52.076,364.971 51.590,365.077 50.372 C 365.092 50.200,365.226 50.137,365.378 50.230 C 365.531 50.325,365.588 50.296,365.507 50.166 C 365.428 50.037,365.517 49.353,365.705 48.646 C 365.894 47.938,366.049 47.074,366.051 46.726 C 366.052 46.378,366.151 46.057,366.269 46.014 C 366.388 45.970,366.561 44.973,366.654 43.798 C 366.747 42.623,366.909 41.607,367.014 41.540 C 367.410 41.288,367.407 28.961,367.011 28.961 C 366.914 28.961,366.768 28.255,366.688 27.391 C 366.607 26.527,366.449 25.699,366.336 25.551 C 366.224 25.403,366.000 24.668,365.838 23.917 C 365.677 23.166,365.445 22.552,365.324 22.552 C 365.203 22.552,365.104 22.345,365.104 22.091 C 365.104 21.838,364.995 21.563,364.863 21.481 C 364.730 21.399,364.683 21.233,364.758 21.111 C 364.833 20.990,364.799 20.890,364.683 20.890 C 364.567 20.890,364.364 20.542,364.234 20.116 C 363.823 18.776,361.387 15.781,359.264 14.006 C 358.588 13.440,356.725 12.586,356.162 12.584 C 355.879 12.583,355.603 12.448,355.549 12.285 C 355.448 11.981,348.742 11.779,347.181 12.033 M103.739 16.380 C 103.977 16.533,102.753 16.612,100.059 16.615 C 97.840 16.618,93.727 16.727,90.920 16.857 C 83.923 17.183,83.799 17.192,83.798 17.355 C 83.798 17.435,82.396 17.576,80.681 17.669 C 78.967 17.762,77.391 17.929,77.180 18.039 C 76.873 18.198,71.874 18.752,69.970 18.837 C 69.742 18.847,69.555 18.924,69.555 19.008 C 69.555 19.091,68.887 19.229,68.071 19.314 C 65.803 19.549,65.647 19.574,65.519 19.725 C 65.407 19.858,62.468 20.376,61.306 20.468 C 61.012 20.491,60.772 20.582,60.772 20.669 C 60.772 20.757,60.318 20.883,59.763 20.950 C 58.552 21.095,58.082 21.204,57.923 21.373 C 57.801 21.502,54.957 22.132,54.421 22.147 C 54.258 22.152,54.125 22.239,54.125 22.340 C 54.125 22.440,53.643 22.595,53.053 22.683 C 52.464 22.772,51.924 22.939,51.853 23.054 C 51.781 23.170,51.576 23.264,51.396 23.264 C 51.216 23.264,50.769 23.388,50.401 23.539 C 50.034 23.689,49.626 23.829,49.496 23.849 C 49.240 23.887,48.868 24.037,47.313 24.723 C 46.765 24.965,46.204 25.163,46.066 25.163 C 45.929 25.163,45.816 25.252,45.816 25.361 C 45.816 25.470,45.682 25.560,45.519 25.561 C 45.125 25.564,42.413 26.846,42.233 27.114 C 42.156 27.230,41.996 27.293,41.877 27.253 C 41.759 27.214,41.234 27.442,40.712 27.761 C 39.763 28.340,39.626 28.401,39.155 28.457 C 39.017 28.473,38.962 28.581,39.034 28.697 C 39.155 28.894,38.325 29.284,37.916 29.222 C 37.815 29.207,37.670 29.356,37.594 29.553 C 37.518 29.750,37.304 29.911,37.118 29.911 C 36.933 29.911,36.719 30.071,36.644 30.267 C 36.569 30.463,36.378 30.623,36.221 30.623 C 36.064 30.623,35.706 30.837,35.426 31.098 C 35.145 31.359,34.831 31.573,34.727 31.573 C 34.623 31.573,34.226 31.947,33.845 32.404 C 33.464 32.861,33.050 33.234,32.924 33.234 C 32.642 33.234,30.976 34.954,31.041 35.178 C 31.067 35.268,30.877 35.409,30.618 35.491 C 30.360 35.573,30.148 35.725,30.148 35.829 C 30.148 36.049,28.971 37.647,28.300 38.338 C 28.047 38.599,27.767 39.044,27.679 39.325 C 27.591 39.607,27.363 39.897,27.172 39.971 C 26.981 40.044,26.825 40.313,26.825 40.569 C 26.825 40.825,26.663 41.196,26.466 41.394 C 26.268 41.591,26.042 42.073,25.964 42.464 C 25.886 42.855,25.684 43.227,25.516 43.292 C 25.348 43.356,25.133 43.871,25.039 44.435 C 24.945 44.998,24.766 45.525,24.641 45.604 C 24.517 45.683,24.356 46.188,24.284 46.726 C 24.212 47.265,24.065 47.651,23.958 47.585 C 23.851 47.519,23.809 47.700,23.864 47.988 C 23.920 48.276,23.868 48.628,23.749 48.771 C 23.630 48.914,23.459 49.830,23.370 50.807 C 23.280 51.783,23.112 52.762,22.997 52.983 C 22.869 53.229,22.881 53.441,23.030 53.533 C 23.163 53.615,23.207 53.788,23.127 53.917 C 22.888 54.304,22.839 55.312,23.059 55.312 C 23.172 55.312,23.264 55.425,23.264 55.563 C 23.264 55.701,23.184 55.765,23.086 55.705 C 22.988 55.644,22.900 55.985,22.891 56.462 L 22.873 57.329 33.073 57.260 C 39.239 57.219,43.447 57.098,43.713 56.955 C 44.207 56.691,44.323 55.551,43.858 55.545 C 43.630 55.543,43.627 55.500,43.847 55.360 C 44.004 55.260,44.130 54.968,44.128 54.711 C 44.119 53.893,44.448 52.226,44.618 52.226 C 44.845 52.226,45.894 50.087,45.741 49.935 C 45.673 49.867,45.978 49.429,46.419 48.962 C 46.860 48.495,47.181 48.048,47.132 47.970 C 47.084 47.891,47.418 47.508,47.874 47.118 C 48.330 46.729,49.042 46.117,49.455 45.760 C 49.869 45.404,50.336 45.110,50.493 45.108 C 50.649 45.106,50.863 44.970,50.967 44.807 C 51.140 44.537,52.336 43.783,52.754 43.680 C 53.650 43.460,53.887 43.363,53.887 43.215 C 53.887 43.121,54.341 42.910,54.896 42.747 C 55.451 42.584,56.226 42.310,56.617 42.137 C 57.009 41.965,57.810 41.701,58.398 41.551 C 61.319 40.805,63.398 40.333,64.688 40.121 C 65.472 39.993,66.380 39.823,66.706 39.742 C 67.860 39.458,72.566 38.890,74.184 38.840 C 74.837 38.820,75.478 38.738,75.608 38.657 C 75.883 38.487,83.352 38.085,84.347 38.186 C 84.714 38.223,85.168 38.126,85.356 37.970 C 85.544 37.814,85.697 37.789,85.697 37.914 C 85.697 38.038,85.853 38.140,86.043 38.140 C 86.233 38.140,86.334 38.051,86.266 37.943 C 86.199 37.834,86.535 37.745,87.012 37.745 L 87.880 37.745 87.711 39.228 C 87.618 40.045,87.447 40.748,87.332 40.791 C 87.216 40.835,87.119 41.209,87.116 41.622 C 87.113 42.036,86.996 42.801,86.856 43.323 C 86.715 43.846,86.584 44.663,86.565 45.140 C 86.545 45.617,86.448 45.958,86.350 45.898 C 86.252 45.837,86.160 46.088,86.146 46.455 C 86.093 47.774,85.934 48.697,85.676 49.180 C 85.464 49.576,85.475 49.634,85.733 49.479 C 85.986 49.326,85.983 49.373,85.720 49.697 C 85.424 50.062,85.291 50.783,85.233 52.344 C 85.218 52.739,85.176 52.759,84.985 52.463 C 84.787 52.156,84.755 52.162,84.751 52.508 C 84.749 52.729,84.855 52.976,84.986 53.057 C 85.143 53.154,85.138 53.365,84.969 53.680 C 84.595 54.380,84.443 55.063,84.395 56.261 C 84.369 56.934,84.250 57.307,84.076 57.270 C 83.923 57.237,83.798 57.329,83.798 57.473 C 83.798 57.643,83.946 57.664,84.214 57.533 C 84.442 57.421,90.157 57.329,96.913 57.329 L 109.197 57.329 109.539 56.623 C 109.766 56.153,109.803 55.824,109.649 55.638 C 109.492 55.449,109.516 55.324,109.723 55.256 C 109.915 55.191,110.030 54.740,110.030 54.045 C 110.030 53.436,110.110 52.938,110.208 52.938 C 110.306 52.938,110.386 52.564,110.386 52.107 C 110.386 51.650,110.477 51.276,110.589 51.276 C 110.701 51.276,110.908 50.448,111.048 49.436 C 111.188 48.424,111.476 46.795,111.688 45.816 C 111.899 44.837,112.106 43.769,112.148 43.442 C 112.190 43.116,112.251 42.822,112.284 42.789 C 112.387 42.688,112.431 42.425,112.626 40.772 C 112.730 39.890,112.909 39.169,113.025 39.169 C 113.140 39.169,113.222 39.089,113.206 38.991 C 113.191 38.893,113.191 38.569,113.206 38.272 L 113.234 37.730 119.822 37.825 C 123.445 37.877,127.104 37.977,127.953 38.046 C 128.801 38.116,132.166 38.246,135.429 38.336 C 138.693 38.426,141.417 38.570,141.483 38.656 C 141.549 38.742,141.976 38.828,142.433 38.846 C 148.378 39.079,155.964 39.530,155.964 39.650 C 155.964 39.853,159.670 40.011,163.199 39.956 C 165.761 39.917,166.509 39.798,168.964 39.037 C 169.128 38.986,169.323 38.969,169.396 38.998 C 169.469 39.027,169.635 38.861,169.764 38.630 C 169.894 38.399,170.100 38.272,170.222 38.347 C 170.345 38.423,170.445 38.366,170.445 38.220 C 170.445 38.074,170.555 38.022,170.688 38.105 C 170.822 38.187,170.902 38.160,170.866 38.043 C 170.831 37.926,171.188 37.464,171.661 37.016 C 172.613 36.114,173.769 33.542,173.769 32.326 C 173.769 31.911,173.883 31.573,174.022 31.573 C 174.183 31.573,174.255 30.948,174.219 29.854 C 174.171 28.350,174.049 27.605,173.606 26.113 C 173.548 25.917,173.534 25.749,173.575 25.740 C 173.616 25.730,173.463 25.536,173.234 25.307 C 173.006 25.079,172.819 24.757,172.819 24.592 C 172.819 24.335,172.223 23.750,169.775 21.602 C 169.254 21.146,166.304 19.941,165.707 19.941 C 165.456 19.941,165.188 19.839,165.111 19.714 C 165.034 19.590,164.333 19.416,163.554 19.327 C 162.774 19.239,162.136 19.092,162.136 19.000 C 162.136 18.908,162.003 18.826,161.840 18.818 C 160.182 18.738,155.763 18.205,155.471 18.050 C 155.264 17.940,153.769 17.774,152.147 17.679 C 150.526 17.585,149.107 17.454,148.994 17.388 C 148.478 17.086,137.264 16.618,130.518 16.618 C 127.277 16.617,125.075 16.525,124.989 16.386 C 124.758 16.012,104.997 16.064,104.846 16.439 C 104.750 16.676,104.722 16.676,104.707 16.439 C 104.697 16.276,104.395 16.144,104.036 16.146 C 103.527 16.149,103.461 16.201,103.739 16.380 M314.074 57.907 C 313.763 58.487,313.764 58.635,314.079 58.635 C 314.218 58.635,314.265 58.528,314.184 58.398 C 314.103 58.267,314.133 58.160,314.249 58.160 C 314.366 58.160,314.461 58.000,314.461 57.804 C 314.461 57.331,314.369 57.355,314.074 57.907 M22.861 58.483 C 22.847 58.959,22.949 59.418,23.088 59.503 C 23.245 59.601,23.292 59.481,23.214 59.181 C 23.145 58.918,23.195 58.512,23.325 58.280 C 23.487 57.991,23.483 57.906,23.314 58.010 C 23.178 58.094,23.026 58.040,22.976 57.890 C 22.926 57.740,22.874 58.007,22.861 58.483 M108.724 58.613 C 108.920 58.752,108.964 58.867,108.823 58.869 C 108.682 58.871,108.566 59.022,108.566 59.206 C 108.566 59.389,108.698 59.489,108.859 59.427 C 109.245 59.279,109.131 58.567,108.703 58.452 C 108.441 58.381,108.446 58.416,108.724 58.613 M345.299 59.008 C 344.786 59.521,344.831 59.648,345.401 59.292 C 345.662 59.129,345.875 58.914,345.875 58.815 C 345.875 58.542,345.710 58.597,345.299 59.008 M361.749 58.954 C 361.895 59.129,361.962 59.343,361.899 59.430 C 361.836 59.517,361.902 59.490,362.047 59.370 C 362.338 59.127,362.131 58.635,361.737 58.635 C 361.565 58.635,361.569 58.736,361.749 58.954 M155.672 131.923 C 156.099 131.976,156.740 131.975,157.096 131.920 C 157.453 131.866,157.104 131.823,156.320 131.824 C 155.537 131.826,155.245 131.870,155.672 131.923 M276.617 131.921 C 276.976 131.975,277.564 131.975,277.923 131.921 C 278.282 131.866,277.988 131.822,277.270 131.822 C 276.552 131.822,276.258 131.866,276.617 131.921 " stroke="none" fill="#04b9fc" fill-rule="evenodd">
		</path>
		<path id="path1" d="M306.299 112.166 C 306.301 112.819,306.347 113.058,306.402 112.697 C 306.456 112.336,306.455 111.802,306.399 111.510 C 306.342 111.218,306.298 111.513,306.299 112.166 M306.287 116.558 C 306.287 117.015,306.335 117.202,306.395 116.973 C 306.455 116.745,306.455 116.371,306.395 116.142 C 306.335 115.914,306.287 116.101,306.287 116.558 M306.469 123.652 C 306.469 123.913,306.576 124.192,306.706 124.273 C 306.837 124.354,306.944 124.206,306.944 123.945 C 306.944 123.684,306.837 123.404,306.706 123.323 C 306.576 123.243,306.469 123.390,306.469 123.652 M72.404 124.510 C 72.404 124.837,72.445 125.104,72.495 125.104 C 72.545 125.104,72.637 124.837,72.699 124.510 C 72.761 124.184,72.720 123.917,72.608 123.917 C 72.496 123.917,72.404 124.184,72.404 124.510 M248.309 124.378 C 248.309 124.647,248.415 124.866,248.546 124.866 C 248.677 124.866,248.783 124.713,248.783 124.524 C 248.783 124.336,248.677 124.116,248.546 124.036 C 248.415 123.955,248.309 124.109,248.309 124.378 M97.845 125.364 C 97.674 125.638,97.595 125.923,97.669 125.997 C 97.743 126.072,97.804 126.002,97.804 125.842 C 97.804 125.682,97.911 125.617,98.042 125.697 C 98.172 125.778,98.279 125.624,98.279 125.355 C 98.279 124.745,98.231 124.746,97.845 125.364 M184.459 125.563 C 184.324 125.816,184.214 126.382,184.214 126.821 C 184.214 127.261,184.080 127.764,183.917 127.940 C 183.680 128.196,183.680 128.226,183.917 128.092 C 184.233 127.914,184.328 128.233,184.044 128.518 C 183.951 128.611,183.858 129.113,183.838 129.634 C 183.818 130.155,183.737 130.645,183.660 130.722 C 183.582 130.800,183.625 131.063,183.756 131.307 C 183.916 131.608,183.914 131.751,183.747 131.751 C 183.272 131.751,183.448 140.558,183.985 143.620 C 184.249 145.122,184.484 146.591,184.509 146.884 C 184.534 147.178,184.638 147.418,184.740 147.418 C 184.842 147.418,184.924 147.552,184.922 147.715 C 184.917 148.092,186.184 152.008,186.362 152.166 C 186.436 152.231,186.636 152.632,186.808 153.056 C 186.979 153.481,187.200 153.828,187.299 153.828 C 187.397 153.828,187.543 154.155,187.623 154.556 C 187.704 154.960,187.876 155.218,188.009 155.135 C 188.141 155.054,188.249 155.095,188.249 155.228 C 188.249 155.743,189.581 157.562,190.341 158.085 C 190.613 158.272,190.791 158.496,190.737 158.584 C 190.683 158.671,190.803 158.946,191.004 159.194 C 191.206 159.441,191.295 159.484,191.203 159.288 C 191.111 159.092,191.356 159.252,191.749 159.644 C 192.995 160.887,193.650 161.424,193.921 161.424 C 194.066 161.424,194.184 161.531,194.184 161.662 C 194.184 161.792,194.339 161.899,194.528 161.899 C 194.718 161.899,194.968 162.069,195.084 162.276 C 195.200 162.484,195.365 162.644,195.452 162.633 C 195.605 162.612,195.664 162.621,196.024 162.720 C 197.251 163.057,197.483 163.170,197.361 163.368 C 197.282 163.495,197.417 163.574,197.660 163.543 C 197.902 163.512,198.421 163.629,198.813 163.802 C 199.205 163.976,199.739 164.130,200.000 164.144 C 200.261 164.159,200.603 164.250,200.760 164.347 C 200.917 164.444,201.451 164.537,201.947 164.554 C 202.443 164.570,202.927 164.701,203.023 164.844 C 203.143 165.023,203.199 165.011,203.201 164.807 C 203.203 164.644,203.318 164.510,203.456 164.510 C 203.594 164.510,203.642 164.617,203.561 164.748 C 203.377 165.045,203.491 165.045,204.271 164.748 C 204.613 164.618,204.844 164.592,204.784 164.689 C 204.724 164.787,204.921 164.866,205.223 164.866 C 205.524 164.866,205.721 164.786,205.661 164.688 C 205.600 164.591,205.657 164.510,205.788 164.510 C 205.919 164.510,206.092 164.617,206.173 164.748 C 206.270 164.907,206.474 164.904,206.780 164.740 C 207.124 164.556,207.241 164.571,207.244 164.799 C 207.247 165.028,207.300 165.022,207.457 164.773 C 207.573 164.590,207.828 164.503,208.024 164.578 C 208.220 164.653,208.443 164.653,208.519 164.577 C 208.595 164.501,209.155 164.410,209.763 164.374 C 210.372 164.339,210.956 164.169,211.063 163.997 C 211.169 163.824,211.394 163.678,211.563 163.672 C 211.731 163.665,212.163 163.531,212.522 163.373 C 214.139 162.663,214.493 162.531,214.676 162.576 C 214.784 162.602,214.806 162.517,214.726 162.387 C 214.646 162.257,214.851 162.082,215.183 161.999 C 215.515 161.916,215.786 161.765,215.786 161.664 C 215.786 161.562,216.011 161.421,216.285 161.349 C 216.567 161.275,216.714 161.106,216.623 160.960 C 216.535 160.817,216.551 160.724,216.659 160.754 C 216.990 160.844,219.584 158.292,219.424 158.033 C 219.339 157.896,219.390 157.862,219.541 157.955 C 219.703 158.055,219.869 157.877,219.964 157.500 C 220.077 157.049,220.191 156.951,220.380 157.140 C 220.568 157.328,220.569 157.516,220.383 157.813 C 220.242 158.040,220.159 158.540,220.200 158.924 C 220.241 159.308,220.187 159.734,220.081 159.870 C 219.906 160.093,219.574 162.146,219.496 163.482 C 219.479 163.765,219.386 164.077,219.287 164.175 C 219.189 164.273,219.290 164.553,219.511 164.798 C 219.893 165.220,219.890 165.234,219.453 165.070 C 219.057 164.921,219.034 164.949,219.292 165.267 C 219.457 165.470,219.536 165.784,219.467 165.964 C 219.361 166.240,220.998 166.272,229.908 166.172 C 237.991 166.081,240.475 166.120,240.475 166.336 C 240.475 166.492,240.566 166.675,240.678 166.744 C 240.790 166.813,240.828 166.590,240.762 166.248 C 240.695 165.900,240.740 165.686,240.863 165.762 C 240.985 165.838,241.072 165.435,241.060 164.848 C 241.048 164.271,241.123 163.798,241.228 163.798 C 241.333 163.798,241.403 163.611,241.384 163.383 C 241.310 162.501,241.433 161.639,241.616 161.752 C 241.722 161.817,241.833 161.423,241.863 160.876 C 241.893 160.329,242.034 159.187,242.176 158.338 C 242.318 157.490,242.427 156.608,242.419 156.380 C 242.410 156.151,242.482 155.964,242.578 155.964 C 242.673 155.964,242.775 155.617,242.804 155.193 C 242.833 154.769,242.957 153.887,243.079 153.234 C 243.202 152.582,243.469 151.139,243.673 150.030 C 243.878 148.920,244.095 147.745,244.157 147.418 C 244.218 147.092,244.403 145.970,244.568 144.926 C 244.733 143.881,244.946 142.907,245.041 142.760 C 245.136 142.613,245.284 141.732,245.371 140.801 C 245.457 139.871,245.601 139.110,245.689 139.110 C 245.778 139.110,245.985 138.068,246.150 136.795 C 246.315 135.522,246.558 134.128,246.690 133.696 C 246.822 133.264,246.978 132.570,247.037 132.153 C 247.096 131.736,247.212 131.234,247.294 131.039 C 247.377 130.843,247.466 130.522,247.493 130.326 C 247.519 130.131,247.619 129.677,247.713 129.318 C 247.834 128.859,247.796 128.665,247.585 128.665 C 247.368 128.665,247.386 128.550,247.650 128.249 C 248.812 126.925,248.607 126.895,237.336 126.766 C 228.220 126.661,227.019 126.689,227.130 127.003 C 227.200 127.199,227.169 127.280,227.062 127.183 C 226.820 126.963,226.154 127.873,226.339 128.171 C 226.413 128.291,226.336 128.531,226.168 128.705 C 226.000 128.879,225.728 129.822,225.564 130.801 C 225.399 131.780,225.162 132.617,225.036 132.661 C 224.910 132.704,224.806 132.918,224.804 133.136 C 224.799 133.719,223.571 137.097,222.709 138.895 C 222.296 139.757,221.958 140.602,221.958 140.775 C 221.958 140.947,221.885 141.014,221.795 140.924 C 221.704 140.834,221.518 141.024,221.379 141.347 C 221.074 142.058,217.918 145.594,217.744 145.420 C 217.676 145.352,217.335 145.499,216.986 145.748 C 214.276 147.677,208.551 146.223,207.443 143.324 C 207.306 142.965,207.109 142.724,207.006 142.788 C 206.902 142.852,206.743 142.504,206.651 142.016 C 206.560 141.528,206.361 141.052,206.210 140.959 C 205.858 140.742,205.765 132.852,206.084 130.326 C 206.208 129.347,206.353 128.209,206.407 127.797 C 206.545 126.739,206.715 126.754,194.984 126.771 C 189.289 126.779,184.576 126.732,184.511 126.668 C 184.274 126.430,184.703 125.323,184.969 125.487 C 185.132 125.588,185.171 125.545,185.067 125.378 C 184.835 125.003,184.744 125.031,184.459 125.563 M248.187 125.345 C 247.912 125.791,247.788 126.901,248.043 126.647 C 248.173 126.516,248.333 126.116,248.397 125.757 C 248.519 125.079,248.444 124.931,248.187 125.345 M328.321 125.555 C 328.139 125.896,328.165 126.039,328.432 126.141 C 328.684 126.238,328.783 126.110,328.783 125.690 C 328.783 124.987,328.646 124.947,328.321 125.555 M72.185 125.895 C 72.165 126.617,72.673 126.690,72.777 125.980 C 72.810 125.758,72.748 125.631,72.640 125.698 C 72.532 125.764,72.390 125.685,72.324 125.521 C 72.258 125.357,72.195 125.525,72.185 125.895 M97.246 126.864 C 97.295 127.136,97.271 127.224,97.192 127.058 C 96.964 126.578,72.560 126.647,72.159 127.130 C 71.932 127.404,71.933 127.478,72.166 127.478 C 72.363 127.478,72.387 127.576,72.238 127.774 C 72.115 127.938,71.995 128.386,71.971 128.770 C 71.946 129.154,71.834 129.528,71.721 129.601 C 71.608 129.674,71.442 130.626,71.351 131.717 C 71.260 132.808,71.087 133.959,70.967 134.276 C 70.847 134.592,70.757 135.088,70.768 135.378 C 70.778 135.668,70.729 136.150,70.657 136.450 C 70.586 136.750,70.455 137.925,70.366 139.062 C 70.278 140.198,70.122 141.234,70.021 141.365 C 69.919 141.496,69.760 142.724,69.666 144.095 C 69.572 145.466,69.432 146.694,69.354 146.825 C 68.963 147.480,68.686 157.151,69.058 157.151 C 69.192 157.151,69.245 157.301,69.175 157.483 C 69.105 157.666,69.162 157.886,69.301 157.972 C 69.441 158.058,69.555 158.336,69.555 158.590 C 69.555 158.843,69.680 159.050,69.832 159.050 C 69.984 159.050,70.038 159.121,69.952 159.208 C 69.865 159.294,70.056 159.708,70.377 160.128 C 70.697 160.548,70.883 160.966,70.791 161.059 C 70.699 161.151,70.730 161.193,70.861 161.151 C 71.188 161.047,72.418 162.159,72.259 162.416 C 72.189 162.530,72.219 162.602,72.327 162.576 C 72.623 162.504,73.828 163.134,73.828 163.362 C 73.828 163.471,74.034 163.561,74.286 163.561 C 74.538 163.561,74.895 163.713,75.081 163.898 C 75.267 164.084,76.025 164.301,76.766 164.381 C 77.507 164.462,78.382 164.629,78.709 164.753 C 79.251 164.959,80.809 164.860,81.246 164.592 C 81.344 164.532,81.424 164.569,81.424 164.674 C 81.424 164.780,81.801 164.887,82.261 164.912 C 82.735 164.938,83.037 164.861,82.959 164.734 C 82.879 164.604,83.369 164.510,84.126 164.510 C 84.844 164.510,85.492 164.413,85.566 164.294 C 85.639 164.175,85.963 164.107,86.285 164.142 C 86.607 164.177,86.814 164.114,86.745 164.002 C 86.676 163.890,86.783 163.798,86.983 163.798 C 87.433 163.798,89.452 162.855,90.032 162.374 C 90.268 162.178,90.506 162.040,90.561 162.066 C 90.688 162.127,92.548 160.382,92.460 160.283 C 92.425 160.243,92.705 159.872,93.082 159.459 C 93.460 159.045,93.769 158.539,93.769 158.333 C 93.769 158.127,93.869 157.857,93.992 157.733 C 94.284 157.438,94.453 156.547,94.711 153.947 C 94.828 152.772,94.973 151.527,95.035 151.181 C 95.096 150.835,95.223 149.286,95.317 147.739 C 95.411 146.192,95.585 144.864,95.704 144.789 C 95.822 144.714,95.903 144.340,95.884 143.958 C 95.826 142.781,96.203 138.635,96.369 138.635 C 96.455 138.635,96.513 138.181,96.499 137.626 C 96.484 137.071,96.530 136.510,96.600 136.380 C 96.768 136.070,96.744 136.260,96.963 133.472 C 97.067 132.134,97.228 131.039,97.320 131.039 C 97.412 131.039,97.492 130.905,97.498 130.742 C 97.504 130.579,97.569 129.528,97.642 128.408 C 97.746 126.824,97.706 126.370,97.466 126.370 C 97.283 126.370,97.193 126.571,97.246 126.864 M307.029 126.920 C 307.060 127.202,307.218 127.593,307.382 127.790 C 307.570 128.016,307.592 128.201,307.443 128.293 C 307.314 128.373,307.255 128.890,307.313 129.442 C 307.371 129.994,307.447 130.766,307.481 131.157 C 307.516 131.549,307.612 131.976,307.695 132.107 C 307.777 132.237,307.920 133.039,308.011 133.887 C 308.103 134.736,308.269 135.542,308.381 135.679 C 308.493 135.816,308.652 136.404,308.733 136.985 C 308.815 137.566,308.943 138.202,309.017 138.398 C 309.216 138.924,309.274 139.125,309.558 140.287 C 309.701 140.870,309.909 141.457,310.021 141.593 C 310.133 141.729,310.302 142.267,310.397 142.789 C 310.491 143.312,310.768 144.135,311.011 144.620 C 311.255 145.104,311.454 145.665,311.454 145.866 C 311.454 146.067,311.561 146.231,311.691 146.231 C 311.822 146.231,311.929 146.394,311.929 146.594 C 311.929 146.987,314.033 151.259,314.324 151.456 C 314.422 151.523,314.576 151.870,314.666 152.228 C 314.755 152.586,314.910 152.878,315.008 152.878 C 315.107 152.878,315.489 153.332,315.858 153.887 C 316.494 154.846,316.817 155.240,318.177 156.722 C 318.499 157.073,318.703 157.420,318.630 157.493 C 318.556 157.566,318.594 157.626,318.714 157.627 C 318.834 157.627,319.306 157.955,319.763 158.356 C 320.220 158.758,320.861 159.262,321.187 159.478 C 321.513 159.693,321.866 160.006,321.970 160.172 C 322.075 160.339,322.321 160.475,322.518 160.475 C 322.731 160.475,322.807 160.587,322.705 160.753 C 322.590 160.939,322.663 160.981,322.928 160.879 C 323.146 160.795,323.323 160.837,323.323 160.971 C 323.323 161.105,323.430 161.149,323.561 161.068 C 323.691 160.988,323.798 161.035,323.798 161.173 C 323.798 161.311,323.913 161.424,324.053 161.424 C 324.192 161.424,324.467 161.585,324.663 161.780 C 324.859 161.976,325.231 162.136,325.491 162.136 C 325.791 162.136,325.900 162.238,325.791 162.414 C 325.676 162.601,325.749 162.642,326.014 162.540 C 326.232 162.457,326.409 162.492,326.409 162.619 C 326.409 162.745,326.619 162.849,326.875 162.849 C 327.132 162.849,327.884 163.062,328.546 163.323 C 329.208 163.585,330.014 163.798,330.335 163.798 C 330.657 163.798,330.920 163.916,330.920 164.061 C 330.920 164.206,331.088 164.259,331.293 164.181 C 331.498 164.102,331.852 164.136,332.078 164.258 C 332.305 164.379,333.125 164.506,333.901 164.540 C 334.677 164.574,335.445 164.701,335.608 164.823 C 335.805 164.969,335.905 164.944,335.905 164.748 C 335.905 164.520,335.982 164.516,336.240 164.730 C 336.493 164.940,336.617 164.941,336.744 164.734 C 336.868 164.533,336.975 164.546,337.140 164.782 C 337.315 165.032,337.392 165.038,337.486 164.807 C 337.552 164.644,337.711 164.510,337.838 164.510 C 337.965 164.510,338.013 164.602,337.944 164.713 C 337.875 164.825,338.082 164.866,338.405 164.805 C 338.727 164.743,338.991 164.578,338.991 164.437 C 338.991 164.297,339.134 164.377,339.308 164.615 C 339.614 165.034,339.647 165.033,340.317 164.605 C 340.908 164.227,340.963 164.221,340.691 164.564 C 340.349 164.997,340.371 164.997,342.159 164.609 C 342.530 164.529,343.198 164.463,343.642 164.463 C 344.087 164.463,344.451 164.381,344.451 164.282 C 344.451 164.182,344.718 164.130,345.045 164.166 C 345.371 164.202,345.638 164.134,345.638 164.015 C 345.638 163.896,346.030 163.798,346.509 163.798 C 347.000 163.798,347.588 163.617,347.856 163.383 C 348.117 163.154,348.257 163.094,348.167 163.248 C 348.056 163.439,348.212 163.425,348.661 163.203 C 349.022 163.023,349.612 162.824,349.971 162.760 C 350.331 162.695,350.945 162.414,351.336 162.136 C 351.727 161.857,352.047 161.698,352.047 161.781 C 352.047 161.865,352.327 161.714,352.669 161.445 C 353.011 161.176,353.384 161.014,353.500 161.085 C 353.615 161.157,353.709 161.084,353.709 160.924 C 353.709 160.764,353.775 160.699,353.856 160.780 C 353.937 160.861,354.159 160.771,354.350 160.580 C 354.541 160.389,354.796 160.294,354.917 160.369 C 355.038 160.444,355.197 160.348,355.271 160.155 C 355.345 159.963,355.745 159.670,356.159 159.504 C 356.574 159.337,357.191 158.900,357.529 158.532 C 357.867 158.165,358.321 157.864,358.537 157.864 C 358.754 157.864,358.932 157.703,358.932 157.507 C 358.932 157.312,359.066 157.151,359.230 157.151 C 359.576 157.151,361.068 155.592,361.068 155.230 C 361.068 155.096,361.202 155.064,361.365 155.158 C 361.528 155.252,361.582 155.241,361.485 155.133 C 361.388 155.026,361.560 154.608,361.868 154.204 C 362.463 153.424,363.442 151.419,363.442 150.980 C 363.442 150.836,363.595 150.423,363.781 150.062 C 364.460 148.750,364.484 143.402,363.822 141.128 C 363.586 140.320,363.182 139.585,362.973 139.585 C 362.839 139.585,362.730 139.437,362.730 139.256 C 362.730 139.075,362.290 138.530,361.752 138.044 C 360.069 136.524,357.177 137.065,354.952 139.317 C 353.883 140.398,350.540 142.566,350.089 142.471 C 349.991 142.450,349.911 142.530,349.911 142.647 C 349.911 142.765,349.617 142.974,349.258 143.111 C 348.899 143.249,347.964 143.633,347.181 143.964 C 345.739 144.575,344.325 144.947,343.816 144.848 C 343.663 144.819,343.470 144.904,343.387 145.038 C 343.193 145.352,340.490 145.358,340.297 145.045 C 340.216 144.914,339.837 144.807,339.455 144.807 C 338.439 144.807,336.528 144.269,336.309 143.921 C 336.204 143.756,336.013 143.620,335.883 143.620 C 335.313 143.620,332.828 141.110,332.226 139.925 C 331.964 139.411,331.689 138.938,331.615 138.872 C 331.444 138.724,330.727 136.694,330.399 135.430 C 330.263 134.908,330.068 134.312,329.966 134.106 C 329.863 133.899,329.703 133.018,329.610 132.147 C 329.517 131.276,329.365 130.564,329.273 130.564 C 329.181 130.564,329.129 129.976,329.158 129.258 C 329.187 128.540,329.114 127.953,328.997 127.953 C 328.879 127.953,328.783 127.690,328.783 127.368 L 328.783 126.784 317.982 126.834 C 310.960 126.867,307.145 126.801,307.077 126.647 C 307.020 126.516,306.999 126.639,307.029 126.920 M153.175 132.179 C 152.490 132.218,151.929 132.348,151.929 132.468 C 151.929 132.588,151.778 132.628,151.595 132.557 C 151.259 132.429,149.185 133.038,148.730 133.399 C 148.596 133.505,148.220 133.671,147.893 133.768 C 147.567 133.864,147.122 134.099,146.905 134.289 C 146.688 134.480,146.360 134.657,146.176 134.684 C 145.992 134.711,145.513 135.070,145.111 135.481 C 144.709 135.893,144.316 136.165,144.237 136.087 C 144.159 136.009,144.095 136.069,144.095 136.221 C 144.095 136.373,143.672 136.934,143.156 137.466 C 142.639 137.998,142.151 138.639,142.071 138.890 C 141.992 139.142,141.827 139.347,141.705 139.347 C 141.583 139.347,141.484 139.500,141.484 139.686 C 141.484 139.873,141.350 140.169,141.187 140.345 C 141.024 140.520,140.855 140.822,140.812 141.015 C 140.770 141.207,140.586 141.685,140.405 142.077 C 139.969 143.022,139.598 144.717,139.590 145.802 C 139.587 146.284,139.497 146.732,139.390 146.799 C 138.867 147.122,139.462 154.176,140.074 154.914 C 140.201 155.067,140.242 155.355,140.166 155.554 C 140.090 155.753,140.141 155.987,140.281 156.073 C 140.420 156.159,140.534 156.432,140.534 156.679 C 140.534 156.926,140.674 157.213,140.845 157.318 C 141.016 157.422,141.305 157.876,141.487 158.327 C 141.976 159.536,144.658 162.138,145.816 162.527 C 146.045 162.604,146.231 162.761,146.231 162.876 C 146.231 162.992,146.392 163.086,146.588 163.086 C 146.783 163.086,146.944 163.190,146.944 163.316 C 146.944 163.442,147.104 163.484,147.300 163.409 C 147.496 163.334,147.656 163.391,147.656 163.535 C 147.656 163.680,147.929 163.798,148.263 163.798 C 148.618 163.798,148.808 163.900,148.720 164.041 C 148.638 164.175,148.658 164.264,148.766 164.238 C 149.091 164.160,151.773 164.560,152.336 164.770 C 152.643 164.885,152.920 164.872,153.003 164.739 C 153.080 164.613,153.251 164.510,153.381 164.510 C 153.512 164.510,153.567 164.593,153.505 164.695 C 153.442 164.796,154.023 164.876,154.796 164.873 C 155.569 164.869,156.202 164.786,156.202 164.688 C 156.202 164.591,156.389 164.512,156.617 164.514 C 156.972 164.517,156.981 164.551,156.677 164.748 C 156.463 164.886,156.433 164.979,156.603 164.982 C 156.759 164.984,156.946 164.887,157.020 164.768 C 157.094 164.648,157.647 164.550,158.249 164.550 C 158.851 164.550,159.451 164.443,159.582 164.311 C 159.713 164.180,159.969 164.130,160.151 164.199 C 160.332 164.269,160.621 164.210,160.792 164.067 C 160.964 163.925,161.523 163.743,162.036 163.662 C 162.548 163.582,163.053 163.365,163.157 163.182 C 163.262 162.999,163.502 162.849,163.691 162.849 C 163.881 162.849,164.036 162.768,164.036 162.669 C 164.036 162.571,164.375 162.339,164.790 162.156 C 165.205 161.972,165.713 161.686,165.918 161.521 C 167.471 160.268,167.834 159.932,167.834 159.750 C 167.834 159.635,168.165 159.203,168.570 158.789 C 168.974 158.375,169.412 157.730,169.542 157.356 C 169.673 156.982,169.876 156.677,169.994 156.677 C 170.111 156.677,170.208 156.516,170.208 156.320 C 170.208 156.123,170.418 155.571,170.674 155.093 C 170.930 154.614,171.210 153.760,171.294 153.195 C 171.379 152.629,171.521 152.166,171.610 152.166 C 172.171 152.166,172.127 143.723,171.557 141.840 C 171.050 140.161,170.164 138.075,169.911 137.962 C 169.813 137.919,169.732 137.759,169.731 137.606 C 169.728 136.905,165.739 133.659,164.793 133.588 C 164.525 133.568,164.355 133.472,164.415 133.375 C 164.475 133.278,164.120 133.126,163.627 133.037 C 163.134 132.949,162.622 132.791,162.490 132.688 C 162.358 132.584,161.146 132.378,159.797 132.229 C 157.537 131.981,156.722 131.974,153.175 132.179 M273.828 132.228 C 272.041 132.485,271.766 132.549,271.380 132.789 C 271.209 132.896,270.728 133.036,270.312 133.101 C 269.896 133.165,269.519 133.315,269.476 133.434 C 269.432 133.553,269.243 133.650,269.055 133.650 C 268.705 133.650,267.166 134.586,266.129 135.430 C 264.286 136.930,262.299 139.595,261.778 141.263 C 261.618 141.776,261.418 142.196,261.334 142.196 C 261.250 142.196,261.105 142.703,261.013 143.323 C 260.920 143.944,260.737 144.517,260.608 144.597 C 260.346 144.759,260.225 151.223,260.454 152.760 C 260.649 154.060,261.165 155.818,261.398 155.975 C 261.504 156.046,261.639 156.366,261.697 156.687 C 261.756 157.008,261.826 157.297,261.852 157.329 C 261.878 157.362,261.912 157.476,261.929 157.584 C 261.945 157.691,262.145 157.966,262.374 158.194 C 262.602 158.423,262.789 158.727,262.789 158.870 C 262.789 159.352,266.265 162.500,267.510 163.146 C 268.189 163.498,268.671 163.655,268.581 163.495 C 268.457 163.276,268.495 163.277,268.737 163.501 C 268.913 163.665,269.249 163.798,269.484 163.798 C 269.719 163.798,269.911 163.912,269.911 164.052 C 269.911 164.197,270.113 164.241,270.384 164.155 C 270.644 164.072,270.991 164.089,271.155 164.192 C 271.320 164.294,271.561 164.396,271.691 164.418 C 271.822 164.439,272.303 164.531,272.760 164.622 C 274.187 164.905,274.893 164.945,275.014 164.749 C 275.078 164.645,275.506 164.644,275.964 164.748 C 276.431 164.853,276.856 164.842,276.930 164.722 C 277.006 164.600,277.257 164.614,277.522 164.755 C 277.842 164.927,278.127 164.925,278.457 164.748 C 278.718 164.608,278.932 164.564,278.932 164.650 C 278.932 164.736,279.065 164.704,279.228 164.580 C 279.392 164.455,279.872 164.376,280.297 164.404 C 280.721 164.432,281.068 164.370,281.068 164.266 C 281.068 164.162,281.332 164.106,281.655 164.142 C 281.978 164.177,282.185 164.114,282.116 164.002 C 282.047 163.890,282.257 163.798,282.583 163.798 C 282.910 163.798,283.247 163.684,283.333 163.545 C 283.420 163.405,283.645 163.351,283.835 163.423 C 284.027 163.497,284.115 163.452,284.034 163.321 C 283.954 163.192,284.035 163.086,284.213 163.086 C 284.391 163.086,284.894 162.823,285.331 162.500 C 285.767 162.178,286.215 161.971,286.326 162.040 C 286.437 162.108,286.528 161.998,286.528 161.794 C 286.528 161.591,286.650 161.424,286.799 161.424 C 286.948 161.424,287.223 161.237,287.410 161.009 C 287.616 160.757,287.682 160.734,287.577 160.950 C 287.482 161.145,287.740 160.993,288.151 160.611 C 288.561 160.229,288.849 159.867,288.789 159.808 C 288.730 159.749,288.998 159.404,289.385 159.043 C 289.772 158.681,290.089 158.281,290.089 158.153 C 290.089 158.026,290.242 157.794,290.430 157.639 C 290.617 157.483,290.839 157.043,290.923 156.660 C 291.008 156.277,291.148 155.964,291.237 155.964 C 291.426 155.964,291.844 154.824,292.499 152.522 C 293.005 150.743,293.384 145.178,293.052 144.406 C 292.950 144.170,292.853 143.709,292.836 143.383 C 292.780 142.328,292.138 139.950,291.821 139.627 C 291.652 139.454,291.513 139.172,291.513 139.000 C 291.513 137.884,287.294 133.841,285.881 133.602 C 285.649 133.563,285.319 133.398,285.146 133.234 C 284.974 133.071,284.460 132.938,284.005 132.938 C 283.513 132.938,283.236 132.841,283.323 132.700 C 283.404 132.570,283.277 132.455,283.041 132.445 C 282.805 132.435,282.398 132.381,282.136 132.326 C 281.094 132.106,275.165 132.036,273.828 132.228 M218.714 166.545 C 218.565 166.862,218.532 167.122,218.641 167.122 C 218.848 167.122,219.217 166.200,219.070 166.053 C 219.024 166.007,218.864 166.229,218.714 166.545 M240.339 167.834 C 240.339 168.095,240.366 168.309,240.399 168.309 C 240.431 168.309,240.572 168.095,240.712 167.834 C 240.907 167.470,240.893 167.359,240.653 167.359 C 240.480 167.359,240.339 167.573,240.339 167.834 " stroke="none" fill="#047ff1" fill-rule="evenodd">
		</path>
		<path id="path2" d="M84.677 53.593 C 84.514 54.441,84.606 54.506,84.938 53.778 C 85.084 53.456,85.114 53.136,85.003 53.068 C 84.893 52.999,84.746 53.236,84.677 53.593 M314.858 55.237 C 314.773 55.474,314.656 55.756,314.597 55.863 C 314.538 55.971,314.715 55.918,314.990 55.747 C 315.540 55.403,315.614 55.179,315.251 54.954 C 315.119 54.873,314.942 55.000,314.858 55.237 M22.888 56.143 C 22.908 56.977,23.315 57.323,23.460 56.630 C 23.502 56.427,23.414 56.261,23.266 56.261 C 23.103 56.261,23.055 56.072,23.145 55.786 C 23.228 55.525,23.200 55.312,23.082 55.312 C 22.964 55.312,22.877 55.686,22.888 56.143 M333.937 56.736 C 334.049 57.162,318.432 57.568,314.599 57.239 C 314.010 57.188,313.912 57.438,314.350 57.875 C 314.572 58.097,314.569 58.160,314.336 58.160 C 314.172 58.160,314.103 58.267,314.184 58.398 C 314.265 58.528,314.219 58.635,314.082 58.635 C 313.945 58.635,313.765 59.062,313.682 59.585 C 313.598 60.107,313.424 60.534,313.295 60.534 C 313.166 60.534,313.115 60.820,313.182 61.170 C 313.249 61.520,313.220 61.974,313.119 62.179 C 312.483 63.460,312.357 63.867,312.488 64.210 C 312.569 64.421,312.542 64.537,312.428 64.466 C 312.314 64.395,312.147 64.922,312.058 65.637 C 311.969 66.351,311.805 66.992,311.693 67.061 C 311.582 67.130,311.417 67.879,311.326 68.727 C 311.236 69.574,311.074 70.267,310.966 70.267 C 310.859 70.267,310.768 70.454,310.764 70.682 C 310.748 71.496,310.269 74.433,310.037 75.139 C 309.816 75.811,309.477 77.678,309.178 79.881 C 308.997 81.211,309.282 81.144,303.264 81.267 C 300.261 81.328,297.591 81.422,297.329 81.476 C 296.399 81.669,294.964 82.212,294.707 82.469 C 294.563 82.613,294.107 82.997,293.694 83.323 C 293.280 83.650,292.941 84.037,292.940 84.185 C 292.939 84.332,292.777 84.585,292.582 84.748 C 292.386 84.910,292.226 85.291,292.226 85.594 C 292.226 85.896,292.123 86.207,291.998 86.284 C 291.874 86.362,291.832 86.582,291.905 86.773 C 291.979 86.965,291.927 87.122,291.791 87.122 C 291.654 87.122,291.554 87.309,291.567 87.537 C 291.580 87.766,291.512 88.396,291.416 88.937 C 291.305 89.565,291.335 89.979,291.497 90.079 C 291.671 90.187,291.677 90.377,291.514 90.681 C 291.140 91.381,291.200 92.228,291.600 91.896 C 291.840 91.697,301.947 91.643,330.275 91.689 C 363.652 91.743,368.588 91.706,368.348 91.408 C 368.136 91.146,368.137 91.106,368.356 91.237 C 368.782 91.493,369.154 90.649,368.852 90.110 C 368.690 89.820,368.688 89.719,368.846 89.817 C 368.984 89.902,369.165 89.586,369.268 89.078 C 369.479 88.042,369.549 86.173,369.377 86.172 C 369.312 86.171,369.237 85.872,369.212 85.507 C 369.127 84.286,368.915 83.446,368.670 83.365 C 368.536 83.320,368.427 83.156,368.427 82.999 C 368.427 82.688,367.307 81.943,366.175 81.502 C 365.671 81.305,362.506 81.218,355.439 81.205 L 345.418 81.187 345.943 80.638 C 346.232 80.335,346.549 80.128,346.647 80.177 C 346.745 80.226,346.825 80.154,346.825 80.019 C 346.825 79.883,347.325 79.316,347.936 78.759 C 349.892 76.973,350.586 76.226,352.641 73.693 C 353.033 73.211,353.593 72.597,353.887 72.329 C 354.181 72.062,354.421 71.702,354.421 71.530 C 354.421 71.358,354.521 71.217,354.643 71.217 C 354.765 71.217,354.924 71.027,354.998 70.796 C 355.071 70.565,355.454 70.022,355.848 69.591 C 356.242 69.159,356.725 68.520,356.920 68.172 C 357.489 67.158,357.833 66.647,358.301 66.126 C 358.541 65.857,358.962 65.131,359.235 64.510 C 359.509 63.890,359.820 63.383,359.926 63.383 C 360.032 63.383,360.119 63.163,360.119 62.894 C 360.119 62.625,360.214 62.464,360.331 62.537 C 360.658 62.738,360.829 62.052,360.527 61.750 C 360.331 61.553,360.351 61.484,360.605 61.483 C 361.143 61.483,362.059 59.328,361.706 58.894 C 361.473 58.606,361.501 58.575,361.866 58.712 C 362.199 58.837,362.274 58.789,362.170 58.519 C 362.085 58.295,362.169 58.160,362.395 58.160 C 362.595 58.160,362.691 58.052,362.609 57.919 C 362.527 57.786,362.362 57.738,362.242 57.813 C 362.121 57.887,362.088 57.779,362.167 57.573 C 362.296 57.237,361.504 57.201,354.327 57.217 C 349.937 57.227,346.248 57.176,346.131 57.103 C 346.013 57.030,345.946 57.158,345.981 57.388 C 346.016 57.617,345.882 57.865,345.684 57.940 C 345.485 58.014,345.295 58.263,345.261 58.492 C 345.221 58.768,345.314 58.865,345.538 58.780 C 345.723 58.708,345.875 58.753,345.875 58.880 C 345.875 59.096,345.525 59.208,345.086 59.132 C 344.979 59.113,344.946 59.188,345.015 59.299 C 345.083 59.409,344.926 59.682,344.666 59.905 C 344.406 60.127,344.250 60.401,344.320 60.514 C 344.389 60.626,344.293 60.844,344.106 60.999 C 343.920 61.154,343.832 61.451,343.912 61.659 C 344.001 61.892,343.960 61.977,343.805 61.880 C 343.661 61.792,343.486 61.988,343.398 62.337 C 343.257 62.899,343.142 63.087,342.423 63.925 C 342.287 64.084,342.034 64.561,341.860 64.985 C 341.687 65.409,341.468 65.757,341.374 65.757 C 341.280 65.757,340.911 66.292,340.555 66.947 C 340.199 67.602,339.808 68.076,339.686 68.001 C 339.565 67.927,339.466 68.016,339.466 68.201 C 339.466 68.385,339.196 68.845,338.866 69.223 C 338.100 70.101,337.901 70.357,337.875 70.504 C 337.780 71.042,330.602 78.217,330.492 77.885 C 330.443 77.737,330.512 77.300,330.647 76.914 C 330.782 76.528,331.024 74.933,331.185 73.370 C 331.346 71.807,331.573 70.587,331.689 70.659 C 331.806 70.731,331.876 70.645,331.844 70.469 C 331.763 70.012,332.137 66.872,332.307 66.588 C 332.385 66.457,332.455 66.083,332.463 65.757 C 332.471 65.430,332.541 65.056,332.619 64.926 C 332.697 64.795,332.836 63.966,332.928 63.084 C 333.019 62.201,333.172 61.527,333.267 61.586 C 333.362 61.645,333.466 61.253,333.498 60.715 C 333.529 60.177,333.620 59.633,333.699 59.506 C 333.778 59.377,333.720 59.349,333.568 59.443 C 333.417 59.536,333.294 59.499,333.294 59.361 C 333.294 59.223,333.414 59.110,333.560 59.110 C 333.740 59.110,333.728 58.991,333.521 58.742 C 333.263 58.431,333.296 58.353,333.730 58.239 C 334.012 58.165,334.243 58.004,334.243 57.881 C 334.243 57.758,334.110 57.733,333.947 57.825 C 333.709 57.959,333.709 57.929,333.947 57.673 C 334.293 57.300,334.338 56.585,334.028 56.394 C 333.910 56.320,333.869 56.474,333.937 56.736 M43.680 56.973 C 43.466 57.112,39.392 57.212,33.472 57.224 C 28.053 57.235,23.460 57.317,23.264 57.405 C 22.893 57.574,22.777 58.460,23.086 58.772 C 23.357 59.045,23.299 59.634,23.018 59.460 C 22.687 59.256,22.799 61.070,23.132 61.302 C 23.296 61.416,23.277 61.478,23.078 61.480 C 22.853 61.483,22.835 61.601,23.012 61.930 C 23.143 62.176,23.301 62.897,23.362 63.533 C 23.462 64.568,23.620 65.685,23.813 66.706 C 23.850 66.902,24.009 67.296,24.166 67.581 C 24.323 67.866,24.454 68.293,24.458 68.530 C 24.463 68.767,24.729 69.496,25.050 70.148 C 25.371 70.801,25.635 71.461,25.636 71.615 C 25.637 71.769,25.806 72.063,26.011 72.268 C 26.216 72.473,26.321 72.641,26.243 72.641 C 26.082 72.641,26.787 73.789,27.237 74.260 C 27.402 74.433,27.537 74.704,27.537 74.863 C 27.537 75.022,28.060 75.708,28.699 76.389 C 29.338 77.069,29.808 77.626,29.744 77.626 C 29.413 77.626,31.819 79.402,32.748 79.843 C 33.950 80.414,38.812 80.579,39.132 80.060 C 39.218 79.920,39.689 79.731,40.179 79.639 C 40.668 79.547,41.068 79.366,41.068 79.236 C 41.068 79.106,41.228 79.061,41.424 79.136 C 41.620 79.211,41.780 79.169,41.780 79.043 C 41.780 78.917,41.882 78.813,42.007 78.813 C 42.241 78.813,43.765 77.864,44.386 77.333 C 44.578 77.168,44.788 77.033,44.851 77.033 C 44.962 77.033,46.287 75.689,46.996 74.858 C 47.188 74.633,47.366 74.303,47.392 74.126 C 47.418 73.948,47.608 73.545,47.815 73.230 C 48.237 72.586,48.341 69.913,47.953 69.674 C 47.822 69.593,47.715 69.344,47.715 69.121 C 47.715 68.898,47.448 68.323,47.122 67.842 C 46.795 67.362,46.528 66.803,46.528 66.600 C 46.528 66.397,46.421 66.231,46.291 66.231 C 46.160 66.231,46.053 66.132,46.053 66.010 C 46.053 65.887,45.929 65.487,45.777 65.119 C 45.624 64.752,45.487 64.398,45.471 64.332 C 45.456 64.267,45.324 64.000,45.178 63.739 C 44.896 63.233,44.866 63.119,44.866 62.538 C 44.866 62.334,44.780 62.221,44.675 62.286 C 44.569 62.352,44.457 61.957,44.425 61.410 C 44.394 60.863,44.272 60.382,44.156 60.341 C 44.039 60.300,44.009 60.095,44.089 59.886 C 44.182 59.645,44.140 59.566,43.974 59.668 C 43.830 59.757,43.635 59.705,43.541 59.552 C 43.439 59.388,43.471 59.337,43.618 59.428 C 43.755 59.513,43.932 59.413,44.011 59.208 C 44.219 58.666,44.198 58.635,43.739 58.793 C 43.404 58.908,43.416 58.864,43.798 58.565 C 44.238 58.222,44.242 58.182,43.859 58.034 C 43.631 57.945,43.505 57.776,43.579 57.657 C 43.652 57.538,43.812 57.502,43.933 57.577 C 44.055 57.652,44.154 57.494,44.154 57.225 C 44.154 56.665,44.156 56.666,43.680 56.973 M109.218 57.092 C 109.205 57.248,105.058 57.307,97.152 57.266 C 85.374 57.203,83.531 57.298,83.931 57.945 C 84.001 58.058,83.935 58.379,83.786 58.659 C 83.596 59.012,83.593 59.118,83.775 59.006 C 83.918 58.917,84.036 58.958,84.036 59.096 C 84.036 59.234,83.922 59.347,83.782 59.347 C 83.642 59.347,83.592 59.547,83.671 59.794 C 83.760 60.076,83.678 60.292,83.449 60.380 C 83.249 60.457,83.086 60.689,83.086 60.897 C 83.086 61.111,83.199 61.204,83.347 61.113 C 83.506 61.015,83.488 61.172,83.302 61.514 C 83.134 61.824,82.859 62.878,82.692 63.858 C 82.525 64.837,82.225 66.439,82.025 67.418 C 81.513 69.928,81.469 70.173,81.181 72.166 C 81.039 73.145,80.833 74.115,80.722 74.322 C 80.612 74.528,80.447 75.382,80.356 76.221 C 80.265 77.059,80.109 77.852,80.009 77.982 C 79.909 78.113,79.824 78.380,79.819 78.576 C 79.796 79.616,79.189 83.561,79.052 83.561 C 78.964 83.561,78.886 83.694,78.878 83.858 C 78.800 85.514,78.470 87.979,78.312 88.081 C 78.203 88.152,78.144 88.606,78.182 89.090 C 78.221 89.574,78.182 89.970,78.097 89.970 C 78.012 89.970,77.943 90.131,77.943 90.326 C 77.943 90.522,78.045 90.682,78.170 90.682 C 78.294 90.682,78.271 90.833,78.118 91.017 C 77.622 91.616,78.129 91.644,90.492 91.698 C 100.453 91.741,102.659 91.808,102.605 92.065 C 102.570 92.238,102.652 92.310,102.790 92.225 C 102.927 92.140,103.020 91.946,102.996 91.792 C 102.972 91.639,103.038 91.316,103.143 91.074 C 103.264 90.793,103.225 90.568,103.033 90.449 C 102.803 90.307,102.826 90.211,103.131 90.040 C 103.350 89.917,103.580 89.451,103.641 89.003 C 103.702 88.556,103.822 87.923,103.908 87.596 C 104.110 86.826,104.160 86.531,104.330 85.104 C 104.408 84.451,104.558 83.650,104.662 83.323 C 104.767 82.997,104.834 82.490,104.810 82.196 C 104.787 81.902,104.848 81.662,104.945 81.662 C 105.043 81.662,105.198 80.861,105.290 79.881 C 105.381 78.902,105.542 78.101,105.646 78.101 C 105.750 78.101,105.910 77.273,106.002 76.261 C 106.094 75.249,106.250 74.315,106.347 74.184 C 106.445 74.053,106.660 72.878,106.825 71.573 C 106.990 70.267,107.222 69.077,107.340 68.927 C 107.457 68.778,107.532 68.564,107.505 68.452 C 107.443 68.194,107.768 65.991,107.938 65.519 C 108.009 65.323,108.107 64.843,108.157 64.451 C 108.206 64.059,108.298 63.418,108.361 63.027 C 108.423 62.635,108.531 61.838,108.601 61.256 C 108.671 60.674,108.834 60.092,108.963 59.962 C 109.304 59.622,109.252 59.276,108.882 59.418 C 108.708 59.485,108.566 59.385,108.566 59.196 C 108.566 58.982,108.706 58.906,108.934 58.993 C 109.137 59.071,109.230 59.062,109.141 58.972 C 109.051 58.883,109.092 58.597,109.231 58.338 C 109.413 57.997,109.411 57.911,109.222 58.027 C 109.079 58.116,108.961 58.084,108.961 57.957 C 108.961 57.829,109.084 57.684,109.234 57.634 C 109.385 57.584,109.446 57.388,109.372 57.199 C 109.297 57.009,109.228 56.961,109.218 57.092 M247.068 75.623 C 246.995 75.696,246.211 75.858,245.326 75.984 C 244.441 76.109,243.601 76.307,243.461 76.424 C 243.320 76.541,243.098 76.658,242.967 76.685 C 242.837 76.712,242.483 76.827,242.180 76.942 C 241.878 77.057,241.585 77.151,241.529 77.151 C 241.036 77.151,237.887 80.418,237.713 81.110 C 237.637 81.413,237.479 81.662,237.363 81.662 C 237.247 81.662,237.151 81.869,237.151 82.122 C 237.151 82.376,237.045 82.649,236.914 82.730 C 236.783 82.811,236.677 83.078,236.677 83.323 C 236.677 83.974,236.339 84.080,235.817 83.594 C 235.566 83.360,235.229 83.212,235.069 83.266 C 234.909 83.319,234.777 83.256,234.777 83.125 C 234.777 82.666,232.490 82.310,229.021 82.230 C 227.095 82.185,225.519 82.238,225.519 82.346 C 225.519 82.454,224.798 82.611,223.917 82.695 C 223.036 82.779,222.101 82.899,221.840 82.963 C 220.412 83.313,218.695 83.820,218.279 84.014 C 218.018 84.136,217.484 84.305,217.092 84.389 C 216.700 84.473,215.579 84.926,214.599 85.395 C 213.620 85.863,212.766 86.249,212.700 86.252 C 212.635 86.255,212.452 86.371,212.293 86.511 C 211.538 87.177,211.349 87.279,210.971 87.223 C 210.744 87.190,210.564 87.318,210.564 87.513 C 210.564 87.705,210.457 87.796,210.326 87.715 C 210.196 87.634,210.089 87.664,210.089 87.782 C 210.089 87.899,209.662 88.199,209.140 88.448 C 208.618 88.698,208.126 89.103,208.046 89.349 C 207.956 89.626,207.840 89.697,207.740 89.536 C 207.638 89.370,207.475 89.445,207.290 89.742 C 207.071 90.092,207.068 90.208,207.278 90.208 C 207.431 90.208,207.488 90.276,207.404 90.360 C 207.320 90.444,207.099 90.386,206.911 90.230 C 206.638 90.004,206.495 90.056,206.189 90.493 C 205.979 90.793,205.753 91.008,205.688 90.970 C 205.622 90.933,205.384 91.006,205.158 91.132 C 204.321 91.602,205.866 91.636,231.001 91.693 L 256.542 91.751 256.479 90.860 C 256.444 90.370,256.541 89.836,256.694 89.673 C 256.848 89.510,256.997 89.065,257.026 88.683 C 257.055 88.301,257.168 87.927,257.278 87.852 C 257.387 87.777,257.607 86.914,257.766 85.935 C 257.926 84.955,258.108 83.887,258.172 83.561 C 258.483 81.973,258.542 80.436,258.304 80.148 C 258.162 79.977,258.106 79.777,258.179 79.704 C 258.513 79.370,256.285 76.560,255.884 76.808 C 255.781 76.872,255.610 76.768,255.503 76.577 C 255.396 76.387,254.775 76.159,254.123 76.072 C 253.471 75.984,252.758 75.818,252.538 75.701 C 252.106 75.473,247.287 75.403,247.068 75.623 " stroke="none" fill="#04a7f5" fill-rule="evenodd">
		</path>
		<path id="path3" d="M206.901 89.869 C 206.696 90.074,206.537 90.368,206.547 90.521 C 206.561 90.732,206.594 90.731,206.681 90.518 C 206.744 90.362,206.923 90.264,207.078 90.301 C 207.232 90.337,207.274 90.321,207.171 90.264 C 207.068 90.208,207.108 90.012,207.260 89.829 C 207.636 89.375,207.364 89.406,206.901 89.869 M256.630 89.614 C 256.391 90.710,256.391 91.251,256.631 90.854 C 256.771 90.621,256.840 90.194,256.784 89.904 C 256.728 89.614,256.659 89.484,256.630 89.614 M102.921 90.187 C 102.847 90.307,102.913 90.447,103.068 90.498 C 103.252 90.560,103.281 90.752,103.151 91.053 C 103.041 91.306,102.972 91.639,102.996 91.792 C 103.020 91.946,102.927 92.140,102.790 92.225 C 102.652 92.310,102.570 92.238,102.605 92.065 C 102.659 91.808,100.453 91.741,90.492 91.698 C 83.794 91.669,78.212 91.582,78.088 91.506 C 77.861 91.365,77.809 91.550,77.802 92.522 C 77.800 92.816,77.716 93.056,77.616 93.056 C 77.515 93.056,77.489 93.270,77.557 93.531 C 77.626 93.792,77.571 94.006,77.437 94.006 C 77.302 94.006,77.122 94.834,77.036 95.846 C 76.951 96.858,76.819 97.846,76.743 98.042 C 76.491 98.692,75.919 102.914,75.913 104.166 C 75.911 104.597,75.841 104.881,75.759 104.798 C 75.676 104.714,75.485 105.644,75.335 106.863 C 75.185 108.082,74.998 109.401,74.921 109.792 C 74.843 110.184,74.669 111.252,74.532 112.166 C 74.396 113.080,74.232 114.095,74.168 114.421 C 74.103 114.748,73.931 115.999,73.784 117.202 C 73.638 118.405,73.446 119.345,73.357 119.290 C 73.269 119.236,73.215 119.427,73.237 119.714 C 73.260 120.002,73.194 120.558,73.091 120.950 C 72.988 121.341,72.847 122.409,72.777 123.322 C 72.708 124.235,72.548 125.016,72.422 125.058 C 72.296 125.100,72.251 125.287,72.323 125.474 C 72.395 125.661,72.540 125.760,72.645 125.695 C 72.750 125.630,72.810 125.758,72.777 125.980 C 72.745 126.202,72.594 126.425,72.442 126.476 C 71.420 126.817,73.554 126.877,84.551 126.817 C 94.415 126.764,96.980 126.812,97.153 127.055 C 97.301 127.262,97.332 127.184,97.250 126.811 C 97.144 126.332,97.177 126.303,97.512 126.574 C 97.754 126.770,97.833 126.781,97.727 126.604 C 97.635 126.450,97.668 126.257,97.800 126.175 C 97.933 126.092,98.040 125.898,98.038 125.743 C 98.036 125.573,97.942 125.602,97.804 125.816 C 97.458 126.352,97.521 125.959,97.898 125.232 C 98.080 124.881,98.208 124.288,98.182 123.914 C 98.156 123.540,98.225 123.290,98.334 123.358 C 98.444 123.426,98.521 123.125,98.505 122.690 C 98.463 121.502,98.780 118.846,98.996 118.576 C 99.101 118.445,99.187 118.071,99.187 117.745 C 99.187 116.658,99.527 114.069,99.700 113.828 C 99.794 113.697,99.857 113.190,99.840 112.700 C 99.822 112.211,99.877 111.810,99.960 111.810 C 100.044 111.810,100.188 110.880,100.280 109.743 C 100.373 108.606,100.521 107.565,100.610 107.429 C 100.699 107.292,100.905 106.220,101.068 105.045 C 101.231 103.869,101.423 102.534,101.494 102.077 C 101.564 101.620,101.744 100.338,101.894 99.228 C 102.043 98.119,102.254 97.149,102.364 97.075 C 102.473 97.000,102.587 96.077,102.617 95.023 C 102.646 93.970,102.740 93.149,102.824 93.199 C 103.048 93.333,103.199 92.826,103.388 91.313 C 103.544 90.068,103.323 89.536,102.921 90.187 M204.866 91.658 C 204.866 91.818,204.799 91.881,204.717 91.799 C 204.634 91.716,204.358 91.760,204.103 91.897 C 203.848 92.034,203.696 92.203,203.767 92.273 C 203.956 92.462,203.328 93.021,202.629 93.287 C 202.293 93.415,202.018 93.682,202.018 93.881 C 202.018 94.080,201.938 94.218,201.840 94.187 C 201.613 94.115,199.750 95.967,199.822 96.193 C 199.851 96.286,199.717 96.302,199.522 96.227 C 199.328 96.153,199.169 96.204,199.169 96.342 C 199.169 96.480,198.929 96.858,198.635 97.182 C 198.341 97.506,197.780 98.178,197.389 98.674 C 196.997 99.171,196.340 99.926,195.929 100.352 C 195.518 100.779,195.223 101.128,195.274 101.128 C 195.324 101.128,194.726 102.001,193.944 103.069 C 193.162 104.136,192.522 105.105,192.522 105.221 C 192.522 105.337,192.256 105.782,191.930 106.209 C 191.604 106.636,191.408 107.056,191.495 107.143 C 191.581 107.229,191.540 107.300,191.404 107.300 C 191.267 107.300,191.015 107.647,190.843 108.071 C 190.672 108.496,190.465 108.896,190.383 108.961 C 190.134 109.162,188.961 111.646,188.961 111.975 C 188.961 112.146,188.866 112.285,188.750 112.285 C 188.543 112.285,188.133 113.414,188.210 113.769 C 188.232 113.866,188.164 113.947,188.060 113.947 C 187.955 113.947,187.735 114.347,187.569 114.837 C 187.404 115.326,187.171 115.941,187.053 116.202 C 186.359 117.731,185.576 120.515,185.598 121.370 C 185.604 121.601,185.522 121.737,185.415 121.671 C 185.196 121.535,184.926 122.670,184.926 123.723 C 184.926 124.106,184.846 124.370,184.748 124.310 C 184.650 124.249,184.554 124.456,184.536 124.769 C 184.517 125.082,184.590 125.284,184.697 125.217 C 184.805 125.151,184.970 125.221,185.065 125.374 C 185.170 125.545,185.134 125.588,184.969 125.487 C 184.704 125.323,184.274 126.430,184.511 126.668 C 184.576 126.732,189.330 126.778,195.076 126.771 C 201.466 126.762,205.765 126.848,206.144 126.992 C 206.726 127.214,206.766 127.185,206.766 126.536 C 206.766 126.156,206.866 125.782,206.988 125.707 C 207.110 125.631,207.208 125.384,207.205 125.159 C 207.203 124.933,207.355 124.137,207.544 123.390 C 207.733 122.643,207.831 121.975,207.762 121.906 C 207.692 121.837,207.761 121.780,207.913 121.780 C 208.065 121.780,208.190 121.610,208.190 121.401 C 208.190 121.192,208.343 120.685,208.531 120.273 C 208.961 119.330,209.679 117.664,209.723 117.507 C 209.901 116.872,210.181 116.179,210.299 116.083 C 210.379 116.018,210.760 115.323,211.144 114.540 C 211.528 113.757,211.982 112.975,212.153 112.802 C 212.323 112.630,212.463 112.341,212.463 112.161 C 212.463 111.981,212.608 111.748,212.785 111.644 C 212.963 111.539,213.257 111.174,213.438 110.832 C 215.074 107.754,222.034 101.639,224.629 101.000 C 224.988 100.911,225.282 100.754,225.282 100.651 C 225.282 100.547,225.816 100.335,226.469 100.178 C 227.122 100.021,227.656 99.808,227.656 99.705 C 227.656 99.507,229.219 99.228,230.311 99.232 C 230.661 99.233,231.015 99.126,231.096 98.994 C 231.323 98.627,232.878 98.694,232.878 99.070 C 232.878 99.244,232.800 99.466,232.703 99.562 C 232.607 99.658,232.524 99.863,232.519 100.017 C 232.494 100.716,231.826 103.870,231.680 103.976 C 231.590 104.042,231.393 104.736,231.241 105.519 C 231.089 106.303,230.912 107.157,230.846 107.418 C 230.780 107.680,230.603 108.668,230.453 109.614 C 230.302 110.561,230.092 111.335,229.986 111.335 C 229.879 111.335,229.792 111.582,229.792 111.884 C 229.792 112.186,229.582 113.237,229.324 114.221 C 229.066 115.204,228.785 116.640,228.698 117.411 C 228.611 118.182,228.458 118.920,228.357 119.050 C 228.256 119.181,228.102 119.715,228.015 120.237 C 227.927 120.760,227.794 121.347,227.717 121.543 C 227.641 121.739,227.556 122.086,227.528 122.315 C 227.500 122.543,227.452 122.757,227.421 122.789 C 227.302 122.914,227.116 124.314,227.090 125.282 C 227.063 126.273,226.863 126.579,226.625 125.994 C 226.558 125.831,226.511 125.964,226.519 126.291 C 226.527 126.617,226.456 127.098,226.363 127.359 C 226.205 127.800,226.217 127.805,226.532 127.422 C 226.719 127.196,226.958 127.089,227.064 127.185 C 227.170 127.281,227.200 127.199,227.130 127.003 C 226.937 126.458,247.545 126.593,247.754 127.138 C 247.833 127.343,247.699 127.656,247.448 127.858 C 247.030 128.194,247.036 128.200,247.543 127.954 C 247.990 127.737,248.066 127.542,247.990 126.814 C 247.889 125.844,248.020 125.282,248.307 125.459 C 248.409 125.522,248.441 125.188,248.378 124.717 C 248.299 124.132,248.345 123.911,248.523 124.021 C 248.686 124.122,248.783 123.955,248.783 123.575 C 248.783 123.241,248.897 122.967,249.035 122.967 C 249.181 122.967,249.240 122.669,249.174 122.255 C 249.113 121.864,249.146 121.543,249.248 121.543 C 249.351 121.543,249.510 120.877,249.602 120.062 C 249.694 119.248,249.856 118.527,249.962 118.460 C 250.068 118.393,250.226 117.812,250.312 117.168 C 250.399 116.524,250.534 115.893,250.613 115.766 C 250.692 115.639,250.785 115.311,250.820 115.038 C 250.855 114.764,251.060 113.792,251.275 112.878 C 251.490 111.964,251.780 110.602,251.919 109.852 C 252.058 109.101,252.263 108.487,252.374 108.487 C 252.485 108.487,252.573 108.246,252.568 107.953 C 252.556 107.168,253.090 104.589,253.294 104.451 C 253.390 104.386,253.580 103.745,253.716 103.027 C 254.266 100.115,254.792 97.916,254.963 97.804 C 255.063 97.739,255.222 97.045,255.317 96.261 C 255.411 95.478,255.591 94.709,255.716 94.553 C 255.840 94.396,255.918 94.022,255.888 93.722 C 255.858 93.421,255.956 92.874,256.107 92.507 C 256.257 92.139,256.380 91.793,256.380 91.737 C 256.380 91.682,244.888 91.636,230.841 91.636 C 216.795 91.636,205.205 91.576,205.085 91.502 C 204.965 91.427,204.866 91.498,204.866 91.658 M291.561 91.917 C 291.173 92.305,291.183 93.140,291.573 92.906 C 291.809 92.764,291.810 92.802,291.575 93.092 C 291.413 93.292,291.322 93.500,291.374 93.553 C 291.426 93.606,291.534 94.077,291.614 94.599 C 291.694 95.122,291.986 95.858,292.262 96.236 C 292.539 96.613,292.617 96.837,292.436 96.732 C 292.255 96.627,292.564 96.985,293.123 97.526 C 293.682 98.068,294.429 98.582,294.785 98.669 C 295.140 98.756,295.506 98.944,295.599 99.087 C 295.712 99.260,297.651 99.375,301.356 99.429 L 306.944 99.510 306.944 100.689 C 306.944 101.337,306.852 101.811,306.739 101.741 C 306.268 101.450,306.310 122.888,306.782 123.360 C 306.871 123.449,306.945 123.904,306.947 124.372 C 306.949 124.840,307.049 125.378,307.169 125.567 C 307.289 125.757,307.319 126.022,307.236 126.157 C 306.944 126.629,307.002 127.250,307.313 126.992 C 307.500 126.837,311.346 126.759,318.129 126.773 C 328.116 126.793,329.855 126.687,328.439 126.144 C 328.109 126.017,328.099 125.925,328.369 125.491 C 328.543 125.213,328.658 124.718,328.625 124.392 C 328.593 124.065,328.533 122.303,328.493 120.475 C 328.452 118.647,328.351 117.044,328.267 116.913 C 328.118 116.678,328.230 109.871,328.418 107.774 C 328.471 107.187,328.521 105.085,328.530 103.103 L 328.546 99.499 342.634 99.423 C 352.601 99.369,356.820 99.269,357.056 99.080 C 357.239 98.934,357.923 98.740,358.576 98.651 C 360.390 98.403,364.154 96.983,364.154 96.547 C 364.154 96.440,364.247 96.409,364.360 96.479 C 364.473 96.549,364.754 96.397,364.985 96.142 C 365.216 95.887,365.497 95.736,365.610 95.806 C 365.723 95.876,365.816 95.825,365.816 95.694 C 365.816 95.353,366.886 94.243,367.214 94.243 C 367.366 94.243,367.554 93.923,367.632 93.531 C 367.710 93.139,367.857 92.819,367.957 92.819 C 368.299 92.819,368.445 92.027,368.139 91.833 C 367.614 91.500,291.895 91.583,291.561 91.917 " stroke="none" fill="#0498f4" fill-rule="evenodd">
		</path>
		<path id="path4" d="M219.995 159.194 C 219.900 159.289,219.822 159.531,219.822 159.731 C 219.822 159.998,219.892 160.025,220.086 159.831 C 220.231 159.686,220.309 159.444,220.259 159.294 C 220.209 159.144,220.090 159.099,219.995 159.194 M71.474 161.721 C 71.528 161.754,71.893 162.047,72.285 162.374 L 72.997 162.967 72.422 162.315 C 72.105 161.955,71.740 161.662,71.610 161.662 C 71.481 161.662,71.419 161.688,71.474 161.721 M219.110 163.798 C 219.110 164.241,219.173 164.305,219.395 164.083 C 219.616 163.862,219.616 163.735,219.395 163.513 C 219.173 163.292,219.110 163.355,219.110 163.798 M338.991 164.540 C 338.991 164.710,338.733 164.755,338.279 164.665 C 337.887 164.586,337.567 164.606,337.567 164.707 C 337.567 164.809,337.992 164.917,338.512 164.948 C 339.279 164.993,339.432 164.935,339.318 164.638 C 339.153 164.210,338.991 164.161,338.991 164.540 M340.427 164.498 C 340.237 164.618,339.980 164.654,339.856 164.577 C 339.732 164.500,339.702 164.554,339.790 164.696 C 340.010 165.052,340.811 164.962,340.811 164.582 C 340.811 164.412,340.802 164.275,340.791 164.277 C 340.780 164.279,340.616 164.378,340.427 164.498 M80.712 164.748 L 80.119 164.938 80.772 164.962 C 81.131 164.975,81.424 164.878,81.424 164.748 C 81.424 164.617,81.398 164.521,81.365 164.534 C 81.332 164.547,81.039 164.643,80.712 164.748 M83.168 164.780 C 83.482 164.962,83.681 164.960,83.869 164.772 C 84.060 164.581,83.941 164.512,83.430 164.518 C 82.816 164.524,82.784 164.556,83.168 164.780 M156.202 164.716 C 156.203 164.799,156.630 164.886,157.152 164.909 C 157.674 164.932,158.101 164.859,158.101 164.746 C 158.101 164.633,157.674 164.546,157.151 164.553 C 156.629 164.560,156.202 164.634,156.202 164.716 M202.255 164.748 C 202.255 164.878,202.415 164.985,202.611 164.985 C 202.807 164.985,202.967 164.878,202.967 164.748 C 202.967 164.617,202.807 164.510,202.611 164.510 C 202.415 164.510,202.255 164.617,202.255 164.748 M204.205 164.778 C 203.981 164.860,204.360 164.922,205.046 164.917 C 205.732 164.912,206.230 164.845,206.153 164.769 C 205.969 164.584,204.718 164.590,204.205 164.778 M207.478 164.748 C 207.478 164.878,207.638 164.985,207.834 164.985 C 208.030 164.985,208.190 164.878,208.190 164.748 C 208.190 164.617,208.030 164.510,207.834 164.510 C 207.638 164.510,207.478 164.617,207.478 164.748 M218.953 165.568 C 219.061 166.359,219.004 166.719,218.725 166.998 C 218.519 167.203,218.417 167.542,218.497 167.751 C 218.578 167.960,218.521 168.278,218.373 168.457 C 218.166 168.707,218.179 168.784,218.428 168.787 C 218.684 168.790,218.689 168.831,218.452 168.982 C 218.286 169.088,218.084 169.887,218.002 170.759 C 217.921 171.631,217.752 172.344,217.626 172.344 C 217.501 172.344,217.439 172.772,217.489 173.294 C 217.539 173.816,217.514 174.243,217.433 174.243 C 217.353 174.243,217.269 174.745,217.245 175.359 C 217.222 175.973,217.113 176.534,217.004 176.605 C 216.809 176.733,216.669 177.760,216.355 181.365 C 216.269 182.344,216.111 183.202,216.004 183.271 C 215.896 183.341,215.816 183.608,215.826 183.865 C 215.867 184.932,215.474 188.151,215.271 188.405 C 215.151 188.557,215.059 189.091,215.067 189.592 C 215.075 190.094,215.040 190.772,214.989 191.098 C 214.937 191.424,214.816 192.813,214.719 194.184 C 214.623 195.555,214.459 196.783,214.355 196.914 C 214.250 197.045,214.088 198.807,213.993 200.831 C 213.898 202.855,213.727 204.572,213.611 204.646 C 213.259 204.875,213.238 216.084,213.591 216.202 C 213.754 216.256,213.887 216.512,213.887 216.769 C 213.887 217.941,215.780 220.404,216.895 220.684 C 217.199 220.761,217.448 220.913,217.448 221.024 C 217.448 221.134,217.822 221.295,218.279 221.381 C 218.736 221.466,219.110 221.608,219.110 221.696 C 219.110 222.151,226.735 222.253,227.680 221.811 C 227.993 221.664,228.885 221.250,229.662 220.890 C 230.439 220.530,231.209 220.116,231.375 219.969 C 231.540 219.823,231.812 219.584,231.980 219.438 C 232.148 219.293,232.445 218.933,232.641 218.639 C 232.837 218.346,233.175 217.872,233.393 217.586 C 233.611 217.300,233.863 216.672,233.953 216.189 C 234.044 215.706,234.204 215.312,234.309 215.312 C 234.414 215.312,234.575 214.484,234.667 213.472 C 234.759 212.460,234.912 211.525,235.006 211.395 C 235.100 211.264,235.201 210.677,235.230 210.089 C 235.367 207.292,236.503 196.864,236.730 196.320 C 236.812 196.125,237.007 194.362,237.163 192.404 C 237.320 190.445,237.529 188.736,237.628 188.605 C 237.727 188.475,237.883 187.326,237.976 186.053 C 238.069 184.780,238.227 183.739,238.326 183.739 C 238.426 183.739,238.577 182.911,238.662 181.899 C 238.984 178.074,239.121 176.970,239.287 176.855 C 239.382 176.789,239.537 175.828,239.632 174.718 C 239.727 173.608,239.907 172.577,240.032 172.425 C 240.157 172.274,240.281 171.073,240.308 169.756 C 240.344 167.944,240.433 167.361,240.673 167.360 C 240.847 167.360,240.927 167.226,240.851 167.062 C 240.775 166.899,240.654 166.605,240.582 166.409 C 240.467 166.098,239.134 166.068,229.896 166.172 C 220.997 166.272,219.361 166.240,219.467 165.964 C 219.536 165.784,219.457 165.470,219.292 165.267 C 219.035 164.950,219.057 164.921,219.440 165.065 C 219.821 165.208,219.844 165.179,219.589 164.872 C 219.038 164.208,218.802 164.467,218.953 165.568 M240.762 164.875 C 240.593 165.067,240.564 165.223,240.697 165.223 C 240.840 165.223,240.878 165.534,240.791 165.994 C 240.710 166.418,240.709 166.707,240.788 166.636 C 240.925 166.513,241.246 164.500,241.125 164.519 C 241.094 164.524,240.931 164.685,240.762 164.875 M275.020 164.740 C 274.969 164.823,275.294 164.915,275.742 164.945 C 276.191 164.975,276.558 164.955,276.558 164.901 C 276.558 164.731,275.118 164.581,275.020 164.740 " stroke="none" fill="#046bec" fill-rule="evenodd">
		</path>
	</g>
</svg>
